<?xml version="1.0" standalone="no"?>
<!DOCTYPE svg PUBLIC "-//W3C//DTD SVG 20010904//EN"
 "http://www.w3.org/TR/2001/REC-SVG-20010904/DTD/svg10.dtd">
<svg version="1.0" xmlns="http://www.w3.org/2000/svg"
 width="100.000000pt" height="100.000000pt" viewBox="0 0 100.000000 100.000000"
 preserveAspectRatio="xMidYMid meet">
<metadata>
Created by potrace 1.14, written by Peter Selinger 2001-2017
</metadata>
<g transform="translate(0.000000,100.000000) scale(0.100000,-0.100000)"
fill="#000000" stroke="none">
<path d="M307 608 c-7 -4 21 -8 61 -8 l74 0 -66 -72 c-36 -40 -66 -77 -66 -83
0 -5 32 24 69 65 38 41 72 73 75 70 5 -5 -6 -19 -111 -134 -24 -26 -42 -50
-40 -52 7 -7 146 -8 153 -1 4 4 -23 7 -59 7 -37 0 -67 2 -67 5 0 3 16 24 37
45 20 22 49 54 63 71 l28 30 5 -33 c3 -18 9 -54 13 -80 3 -27 9 -48 13 -48 4
0 22 30 40 68 48 95 62 132 53 132 -4 0 -25 -37 -47 -82 l-38 -83 -16 95 -16
95 -74 0 c-40 0 -78 -3 -84 -7z"/>
<path d="M487 563 c3 -27 10 -52 15 -58 6 -6 8 4 4 30 -3 22 -5 48 -6 58 0 9
-4 17 -9 17 -5 0 -6 -21 -4 -47z"/>
<path d="M682 603 c2 -10 -11 -120 -19 -152 -5 -20 -10 -14 -37 44 l-31 67
-37 -76 c-21 -42 -34 -76 -29 -76 5 0 18 19 29 43 l21 42 17 -42 c9 -24 21
-43 26 -43 11 0 10 2 -7 43 -8 19 -20 37 -26 39 -9 3 -9 9 -2 22 8 14 15 5 42
-56 37 -83 45 -80 55 22 4 36 9 80 12 98 3 19 1 32 -5 32 -6 0 -10 -3 -9 -7z"/>
<path d="M657 593 c-11 -17 -19 -108 -9 -98 5 6 12 31 16 58 5 44 3 57 -7 40z"/>
<path d="M330 580 c0 -5 14 -10 30 -10 17 0 30 5 30 10 0 6 -13 10 -30 10 -16
0 -30 -4 -30 -10z"/>
<path d="M364 421 c7 -10 61 -9 72 2 4 4 -12 7 -35 7 -23 0 -40 -4 -37 -9z"/>
<path d="M399 341 c9 -6 10 -11 2 -15 -16 -10 -13 -33 4 -33 11 0 12 4 4 13
-7 8 -7 14 1 19 16 10 12 25 -7 25 -14 0 -15 -2 -4 -9z"/>
<path d="M470 334 c11 -12 11 -15 0 -12 -7 2 -14 -2 -16 -7 -2 -6 5 -11 16
-11 11 0 20 3 20 7 0 17 -13 39 -22 39 -6 0 -5 -7 2 -16z"/>
<path d="M529 343 c0 -5 -2 -16 -4 -26 -2 -11 -1 -16 3 -13 8 8 14 46 7 46 -3
0 -5 -3 -6 -7z"/>
<path d="M570 327 c0 -13 3 -26 6 -30 10 -10 34 4 34 21 0 13 -3 12 -15 -4
-14 -19 -14 -19 -15 3 0 12 7 23 18 26 13 4 11 5 -5 6 -18 1 -23 -4 -23 -22z"/>
<path d="M346 263 c-11 -11 -7 -20 9 -20 8 0 15 4 15 8 0 11 -16 20 -24 12z"/>
<path d="M455 260 c-3 -6 1 -7 9 -4 18 7 21 14 7 14 -6 0 -13 -4 -16 -10z"/>
<path d="M521 254 c0 -11 3 -14 6 -6 3 7 2 16 -1 19 -3 4 -6 -2 -5 -13z"/>
<path d="M576 253 c-6 -14 -5 -15 5 -6 7 7 10 15 7 18 -3 3 -9 -2 -12 -12z"/>
<path d="M633 256 c0 -7 6 -13 14 -13 7 0 13 4 13 8 0 4 -6 9 -13 12 -8 3 -14
0 -14 -7z"/>
</g>
</svg>
